<?xml version="1.0" encoding="UTF-8"?>
<svg id="_レイヤー_1" data-name="レイヤー_1" xmlns="http://www.w3.org/2000/svg" version="1.1" viewBox="0 0 735.38 84.81">
  <!-- Generator: Adobe Illustrator 30.5.1, SVG Export Plug-In . SVG Version: 2.1.4 Build 3)  -->
  <defs>
    <style>
      .st0 {
        fill: #231815;
      }
    </style>
  </defs>
  <polygon class="st0" points="284.1 50.68 292.9 50.54 289.03 38.76 284.5 21.7 280.62 35.79 267.4 80.88 247.95 80.88 274.58 3.86 294.37 3.87 321.55 80.83 302.41 80.95 297.25 64.46 280.09 64.35 284.1 50.68"/>
  <path class="st0" d="M372.56,80.92c-6.32-10.47-2.56-24.1-10.57-27.03-3.09-1.13-6.47-1.36-9.99-1.61l.13-13.56,11.86-.2c3.26-.05,5.43-2.74,5.92-5.64,1.2-7.04.29-14.64-5.08-14.67l-12.78-.05V3.77s16.32.36,16.32.36c4.36.1,9.19,1.76,12.45,4.44,4.66,3.84,5.93,9.68,6.13,15.42.33,9.46-3.97,17.59-12.96,20.04,4.11,1.47,6.45,3.99,8.14,7.6l3.07,14.47c1.11,5.21,2.54,9.87,5.11,14.76l-17.78.05Z"/>
  <path class="st0" d="M69.64,53.92c1.32,7.85,7.06,12.52,14.71,13.74l-.11,14.44c-13.74,1.08-25.3-7.2-30.09-20.07-4.57-12.27-4.76-26.17-.38-38.57C58.46,10.22,70.1,1.68,84.46,1.98l-.03,14.36c-7.79.79-13.01,6.4-14.58,13.69-1.66,7.66-1.56,15.8-.2,23.89Z"/>
  <path class="st0" d="M93.28,82.34l.13-14.61c8-1.07,13.27-5.78,14.66-13.16,1.58-8.39,1.58-17.21-.18-25.51-1.58-7.43-7.03-12.31-14.63-12.63l.03-14.52c8.34.6,16.58,2.91,22.77,8.78,9.35,8.87,11.92,23.36,10.87,36.14-1.62,19.63-12.65,36.62-33.65,35.51Z"/>
  <rect class="st0" x="0" y="3.77" width="17.51" height="77.15"/>
  <rect class="st0" x="133.76" y="3.82" width="17.02" height="77.12"/>
  <rect class="st0" x="326.14" y="3.75" width="17" height="77.19"/>
  <rect class="st0" x="483.5" y="3.82" width="17.05" height="77.11"/>
  <path class="st0" d="M451.52,38.8c-1.74,5.45-2.89,10.33-3.62,15.69l-3.59,26.4-17.3-.02-4.61-31.46c-.41-2.8-2.25-6.22-2.25-8.96l-.06-36.8,9.61,35.16,5.75,22.95c1.92-3.66,1.7-6.9,2.59-10.35l11.82-45.64.34-1.28c.09-.34.74-.44,1.29-.48l.02,34.79Z"/>
  <rect class="st0" x="396.14" y="3.82" width="16.09" height="77.1"/>
  <rect class="st0" x="458.97" y="3.82" width="16.07" height="77.09"/>
  <polygon class="st0" points="222.37 80.7 206.08 80.84 160.03 4.11 175.97 3.81 222.37 80.7"/>
  <polygon class="st0" points="222.43 68.91 206.24 42.24 205.76 29.7 205.41 3.83 222.53 3.83 222.43 68.91"/>
  <polygon class="st0" points="176.39 71.72 176.75 80.91 159.65 80.87 159.72 20.92 159.74 15.38 176.02 42.68 176.39 71.72"/>
  <path class="st0" d="M545.19,82.83l-.22-14.12c3.14-.55,6.26-1.11,8.35-3.55s2.22-7.22-.01-9.62c-3.03-3.25-7.45-4.4-11.63-5.54l-18.91-5.18c-6.24-1.71-11.5-7.02-12.86-13.52-2.83-13.5,3.74-26.59,16.54-28.18l9.56-1.18.02,13.95c-4.25-.32-8.02,1.29-9.04,5.14-.95,3.6.3,7.86,4.43,8.99l12.9,3.53c5.74,1.57,11.6,2.64,16.82,5.25,7.38,3.7,10.92,10.72,11.26,18.69.3,6.95-1.91,12.99-7.11,17.83-5.37,4.56-11.47,6.92-20.11,7.51Z"/>
  <path class="st0" d="M535.99,82.84c-8.51.15-16.26-1-22.11-6.43-5.32-4.94-7.03-12.25-7.04-19.69l16.75-.75,2.77,8.07c1.26,3.67,5.64,4.49,9.57,4.45l.06,14.34Z"/>
  <path class="st0" d="M554.39,27.59l-.63-4.03c-.7-4.48-3.73-7.44-8.69-7.33l-.02-14.06c15.42.71,25.32,8.92,25.98,24.17l-16.63,1.25Z"/>
  <rect class="st0" x="25.98" y="66.82" width="28.36" height="14.11"/>
  <path class="st0" d="M624.45,9.98l-5.73,17.79-6.43-.18-5.83-18.1c-1.17,6.74-.51,12.13-.65,18.44l-6.77-.04-.43-26.2,11.62-.12,5.39,15.02,5.31-14.95h11.48s.02,26.22.02,26.22l-7.28-.04c-.18-6.02.4-10.84-.68-17.84Z"/>
  <polygon class="st0" points="587.38 27.87 579.37 27.88 579.36 7.69 571.02 7.63 571.06 1.59 595.71 1.6 595.75 7.66 587.36 7.69 587.38 27.87"/>
  <path class="st0" d="M684.23,46.92c-.65-.63-1.84-1.41-2.45-1.28-.73.16-1.65,1.47-1.97,2.35l-.33,30.55-.54,1.67c-.16.48-1.7-.01-2.1-.26l-18.18-17.99c-.5-1.73-4.24-2.98-4.99-.79l-.46,7.62c-.17.64-2.42.12-2.68-.56-10.28-13.79-10.98-31.79-1.89-46.36,6.94-12.99,19.98-20.86,34.6-21.77,16.44-1.02,31.35,4.89,42.02,17.06,9.61,10.96,12.85,24.92,7.67,38.78-2.03,5.44-4.55,10.39-8.64,14.78-6.6,7.08-15.01,11.85-24.61,14.03-1.41.32-3.06-1.01-3.02-2.34l.29-11.44-.13-11.95-12.6-12.1ZM682.8,30.19l15.18-14.1,3.68-3.94c.26-.28.71-1.11.8-1.46.51-1.83-13.56-5.35-24.83-1.03-.56.21-1.52,1.11-1.46,1.62.26,2.44,3.76,3.41,3.79,5.45l.19,12.28c0,.47.65,1.41.95,1.66.2.16,1.47-.26,1.71-.48ZM725.96,39.93c-.35-10.61-5.97-19.84-14.14-26.48l-2.53.15c-.4.02-.69,1.32-.69,1.79l-.13,54.57-3.04,3.31c-.33.36-.65,1.37-.74,1.81-.53,2.57,23.95-9.4,21.27-35.15ZM667.28,55.9c.84,0,2.05-1.88,2.05-2.63l.07-33.5c0-.74-.51-2.47-1.19-2.5l-2.7-.12c-8.7,6.86-13.7,17.19-13.12,28.28,2.14,6.08-.75,10.52,3.58,10.5l11.31-.04ZM696.69,43.91c.87-4.45.98-7.49-.49-11.45-2.82,1.74-4.85,3.84-6.46,6.02,1.61,2.7,3.71,4.94,6.96,5.43Z"/>
</svg>